<mxfile host="app.diagrams.net" modified="2022-01-04T00:29:28.786Z" agent="5.0 (Macintosh)" etag="aSsdQKNxL2uYOJK0VUQI" version="16.1.4" type="github">
  <diagram id="AUHD5_hWMVwP8_O0gy8G" name="Page-1">
    <mxGraphModel dx="1426" dy="797" grid="1" gridSize="10" guides="1" tooltips="1" connect="1" arrows="1" fold="1" page="1" pageScale="1" pageWidth="1169" pageHeight="827" math="0" shadow="0">
      <root>
        <mxCell id="0" />
        <mxCell id="1" parent="0" />
      </root>
    </mxGraphModel>
  </diagram>
</mxfile>
